# xmcd
#
# Track frame offsets: 
#        150
#        41658
#        74500
#        110899
#        138289
#        170598
#        201598
#        240764
#        273526
#
# Disc length: 4394 seconds
#
# Revision: 0
# Processed by: cddbd v1.5.2PL0 Copyright (c) Steve Scherf et al.
# Submitted via: ExactAudioCopyFreeDBPlugin 1.0
#
DISCID=8a112809
DTITLE=Various Artist - Phoenix CD1 - Genesis
DYEAR=2013
DGENRE=Goa
TTITLE0=Doof - Double Dragons (Trance Edit)
TTITLE1=Satori - Neureality
TTITLE2=Rythmystec - Eskimo
TTITLE3=Deflo - Ka.El.Mono (Alternative Recording Session)
TTITLE4=100th Monkey - Spiritus (Unreleased Mix)
TTITLE5=Psychaos - Mindwash
TTITLE6=Somaton - MKs Dist
TTITLE7=ManMadeMan - Wasteland
TTITLE8=Snake Thing - Gizmo
EXTD=
EXTT0=
EXTT1=
EXTT2=
EXTT3=
EXTT4=
EXTT5=
EXTT6=
EXTT7=
EXTT8=
PLAYORDER=
